<mxfile host="www.draw.io" modified="2020-01-31T05:44:48.142Z" agent="Mozilla/5.0 (Windows NT 10.0; Win64; x64) AppleWebKit/537.36 (KHTML, like Gecko) Chrome/79.0.3945.130 Safari/537.36" etag="t9mUAPF3K6-YOra-GvE1" version="12.6.2" type="github">
  <diagram id="IHqy7XGbUocOzgiCqlBh" name="Page-1">
    <mxGraphModel dx="868" dy="482" grid="1" gridSize="10" guides="1" tooltips="1" connect="1" arrows="1" fold="1" page="1" pageScale="1" pageWidth="850" pageHeight="1100" math="0" shadow="0">
      <root>
        <mxCell id="0"/>
        <mxCell id="1" parent="0"/>
        <mxCell id="wuBHW3_i2wkjCvPNT6zz-182" value="" style="rounded=0;whiteSpace=wrap;html=1;strokeColor=#FFB570;fillColor=#66B2FF;gradientColor=none;fontColor=#3399FF;" vertex="1" parent="1">
          <mxGeometry x="20" y="50" width="180" height="20" as="geometry"/>
        </mxCell>
        <mxCell id="wuBHW3_i2wkjCvPNT6zz-173" value="" style="html=1;verticalLabelPosition=bottom;labelBackgroundColor=#ffffff;verticalAlign=top;shadow=0;dashed=0;strokeWidth=1;shape=mxgraph.ios7ui.iconGrid;fillColor=#c0c0c0;gridSize=3,3;" vertex="1" parent="1">
          <mxGeometry x="325" y="500" width="175" height="240" as="geometry"/>
        </mxCell>
        <mxCell id="wuBHW3_i2wkjCvPNT6zz-1" value="" style="verticalLabelPosition=bottom;verticalAlign=top;html=1;shadow=0;dashed=0;strokeWidth=1;shape=mxgraph.android.phone2;strokeColor=#c0c0c0;" vertex="1" parent="1">
          <mxGeometry x="10" y="20" width="200" height="390" as="geometry"/>
        </mxCell>
        <mxCell id="wuBHW3_i2wkjCvPNT6zz-4" value="APOD Image" style="whiteSpace=wrap;html=1;shape=mxgraph.basic.roundRectCallout;dx=30;dy=15;size=5;boundedLbl=1;" vertex="1" parent="1">
          <mxGeometry x="170" y="20" width="100" height="60" as="geometry"/>
        </mxCell>
        <mxCell id="wuBHW3_i2wkjCvPNT6zz-5" value="" style="verticalLabelPosition=bottom;verticalAlign=top;html=1;shadow=0;dashed=0;strokeWidth=1;shape=mxgraph.android.phone2;strokeColor=#c0c0c0;" vertex="1" parent="1">
          <mxGeometry x="310" y="20" width="200" height="390" as="geometry"/>
        </mxCell>
        <mxCell id="wuBHW3_i2wkjCvPNT6zz-12" value="" style="verticalLabelPosition=bottom;verticalAlign=top;html=1;shadow=0;dashed=0;strokeWidth=2;shape=mxgraph.android.navigation_bar_5;fillColor=#1A1A1A;strokeColor=#999999;" vertex="1" parent="1">
          <mxGeometry x="17.5" y="340" width="185" height="30" as="geometry"/>
        </mxCell>
        <mxCell id="wuBHW3_i2wkjCvPNT6zz-18" value="" style="verticalLabelPosition=bottom;verticalAlign=top;html=1;shape=mxgraph.basic.rect;fillColor2=none;strokeWidth=1;size=20;indent=5;" vertex="1" parent="1">
          <mxGeometry x="320" y="320" width="180" height="30" as="geometry"/>
        </mxCell>
        <mxCell id="wuBHW3_i2wkjCvPNT6zz-19" value="" style="aspect=fixed;html=1;points=[];align=center;image;fontSize=12;image=img/lib/mscae/Shared_Dashboard.svg;fillColor=#000000;" vertex="1" parent="1">
          <mxGeometry x="442.11" y="320" width="24.39" height="20" as="geometry"/>
        </mxCell>
        <mxCell id="wuBHW3_i2wkjCvPNT6zz-20" value="" style="outlineConnect=0;fontColor=#232F3E;gradientColor=none;fillColor=#66B2FF;strokeColor=none;dashed=0;verticalLabelPosition=bottom;verticalAlign=top;align=center;html=1;fontSize=12;fontStyle=0;aspect=fixed;pointerEvents=1;shape=mxgraph.aws4.container_registry_image;" vertex="1" parent="1">
          <mxGeometry x="360" y="320" width="20" height="20" as="geometry"/>
        </mxCell>
        <mxCell id="wuBHW3_i2wkjCvPNT6zz-22" value="" style="verticalLabelPosition=bottom;verticalAlign=top;html=1;shadow=0;dashed=0;strokeWidth=2;shape=mxgraph.android.navigation_bar_5;fillColor=#1A1A1A;strokeColor=#999999;" vertex="1" parent="1">
          <mxGeometry x="317.5" y="350" width="185" height="30" as="geometry"/>
        </mxCell>
        <mxCell id="wuBHW3_i2wkjCvPNT6zz-13" value="" style="html=1;shadow=0;dashed=0;align=center;verticalAlign=middle;shape=mxgraph.arrows2.sharpArrow2;dy1=0.67;dx1=18;dx2=18;dy3=0.15;dx3=27;notch=0;strokeColor=#000000;fillColor=#66B2FF;direction=north;rotation=60;" vertex="1" parent="1">
          <mxGeometry x="245.94" y="140.75" width="30" height="183" as="geometry"/>
        </mxCell>
        <mxCell id="wuBHW3_i2wkjCvPNT6zz-6" value="" style="ellipse;whiteSpace=wrap;html=1;aspect=fixed;strokeColor=#FFB570;fillColor=#FFB570;" vertex="1" parent="1">
          <mxGeometry x="460" y="269.5" width="40" height="40" as="geometry"/>
        </mxCell>
        <mxCell id="wuBHW3_i2wkjCvPNT6zz-27" value="" style="shape=image;html=1;verticalAlign=top;verticalLabelPosition=bottom;labelBackgroundColor=#ffffff;imageAspect=0;aspect=fixed;image=https://cdn0.iconfinder.com/data/icons/google-material-design-3-0/48/ic_today_48px-128.png" vertex="1" parent="1">
          <mxGeometry x="466.5" y="276" width="27" height="27" as="geometry"/>
        </mxCell>
        <mxCell id="wuBHW3_i2wkjCvPNT6zz-29" value="" style="ellipse;whiteSpace=wrap;html=1;aspect=fixed;fillColor=#FFB570;strokeColor=#d79b00;" vertex="1" parent="1">
          <mxGeometry x="153" y="263" width="40" height="40" as="geometry"/>
        </mxCell>
        <mxCell id="wuBHW3_i2wkjCvPNT6zz-8" value="" style="shape=image;html=1;verticalAlign=top;verticalLabelPosition=bottom;labelBackgroundColor=#ffffff;imageAspect=0;aspect=fixed;image=https://cdn0.iconfinder.com/data/icons/google-material-design-3-0/48/ic_today_48px-128.png" vertex="1" parent="1">
          <mxGeometry x="159.5" y="269.5" width="27" height="27" as="geometry"/>
        </mxCell>
        <mxCell id="wuBHW3_i2wkjCvPNT6zz-30" value="" style="strokeWidth=1;shadow=0;dashed=0;align=center;html=1;shape=mxgraph.mockup.forms.rrect;rSize=5;strokeColor=#999999;fillColor=#ffffff;" vertex="1" parent="1">
          <mxGeometry x="340" y="80" width="160" height="175" as="geometry"/>
        </mxCell>
        <mxCell id="wuBHW3_i2wkjCvPNT6zz-31" value="October 2014" style="strokeWidth=1;shadow=0;dashed=0;align=center;html=1;shape=mxgraph.mockup.forms.anchor;fontColor=#999999;" vertex="1" parent="wuBHW3_i2wkjCvPNT6zz-30">
          <mxGeometry x="30" y="8" width="100" height="20" as="geometry"/>
        </mxCell>
        <mxCell id="wuBHW3_i2wkjCvPNT6zz-32" value="&lt;" style="strokeWidth=1;shadow=0;dashed=0;align=center;html=1;shape=mxgraph.mockup.forms.rrect;rSize=4;strokeColor=#999999;fontColor=#008cff;fontSize=19;fontStyle=1;" vertex="1" parent="wuBHW3_i2wkjCvPNT6zz-30">
          <mxGeometry x="8" y="8" width="25" height="20" as="geometry"/>
        </mxCell>
        <mxCell id="wuBHW3_i2wkjCvPNT6zz-33" value="&gt;" style="strokeWidth=1;shadow=0;dashed=0;align=center;html=1;shape=mxgraph.mockup.forms.rrect;rSize=4;strokeColor=#999999;fontColor=#008cff;fontSize=19;fontStyle=1;" vertex="1" parent="wuBHW3_i2wkjCvPNT6zz-30">
          <mxGeometry x="127" y="8" width="25" height="20" as="geometry"/>
        </mxCell>
        <mxCell id="wuBHW3_i2wkjCvPNT6zz-34" value="Mo" style="strokeWidth=1;shadow=0;dashed=0;align=center;html=1;shape=mxgraph.mockup.forms.anchor;fontColor=#999999;" vertex="1" parent="wuBHW3_i2wkjCvPNT6zz-30">
          <mxGeometry x="10" y="28" width="20" height="20" as="geometry"/>
        </mxCell>
        <mxCell id="wuBHW3_i2wkjCvPNT6zz-35" value="Tu" style="strokeWidth=1;shadow=0;dashed=0;align=center;html=1;shape=mxgraph.mockup.forms.anchor;fontColor=#999999;" vertex="1" parent="wuBHW3_i2wkjCvPNT6zz-30">
          <mxGeometry x="30" y="28" width="20" height="20" as="geometry"/>
        </mxCell>
        <mxCell id="wuBHW3_i2wkjCvPNT6zz-36" value="We" style="strokeWidth=1;shadow=0;dashed=0;align=center;html=1;shape=mxgraph.mockup.forms.anchor;fontColor=#999999;" vertex="1" parent="wuBHW3_i2wkjCvPNT6zz-30">
          <mxGeometry x="50" y="28" width="20" height="20" as="geometry"/>
        </mxCell>
        <mxCell id="wuBHW3_i2wkjCvPNT6zz-37" value="Th" style="strokeWidth=1;shadow=0;dashed=0;align=center;html=1;shape=mxgraph.mockup.forms.anchor;fontColor=#999999;" vertex="1" parent="wuBHW3_i2wkjCvPNT6zz-30">
          <mxGeometry x="70" y="28" width="20" height="20" as="geometry"/>
        </mxCell>
        <mxCell id="wuBHW3_i2wkjCvPNT6zz-38" value="Fr" style="strokeWidth=1;shadow=0;dashed=0;align=center;html=1;shape=mxgraph.mockup.forms.anchor;fontColor=#999999;" vertex="1" parent="wuBHW3_i2wkjCvPNT6zz-30">
          <mxGeometry x="90" y="28" width="20" height="20" as="geometry"/>
        </mxCell>
        <mxCell id="wuBHW3_i2wkjCvPNT6zz-39" value="Sa" style="strokeWidth=1;shadow=0;dashed=0;align=center;html=1;shape=mxgraph.mockup.forms.anchor;fontColor=#999999;" vertex="1" parent="wuBHW3_i2wkjCvPNT6zz-30">
          <mxGeometry x="110" y="28" width="20" height="20" as="geometry"/>
        </mxCell>
        <mxCell id="wuBHW3_i2wkjCvPNT6zz-40" value="Su" style="strokeWidth=1;shadow=0;dashed=0;align=center;html=1;shape=mxgraph.mockup.forms.anchor;fontColor=#999999;" vertex="1" parent="wuBHW3_i2wkjCvPNT6zz-30">
          <mxGeometry x="130" y="28" width="20" height="20" as="geometry"/>
        </mxCell>
        <mxCell id="wuBHW3_i2wkjCvPNT6zz-41" value="1" style="strokeWidth=1;shadow=0;dashed=0;align=center;html=1;shape=mxgraph.mockup.forms.rrect;rSize=0;strokeColor=#999999;fontColor=#999999;" vertex="1" parent="wuBHW3_i2wkjCvPNT6zz-30">
          <mxGeometry x="10" y="48" width="20" height="20" as="geometry"/>
        </mxCell>
        <mxCell id="wuBHW3_i2wkjCvPNT6zz-42" value="2" style="strokeWidth=1;shadow=0;dashed=0;align=center;html=1;shape=mxgraph.mockup.forms.rrect;rSize=0;strokeColor=#999999;fontColor=#999999;" vertex="1" parent="wuBHW3_i2wkjCvPNT6zz-30">
          <mxGeometry x="30" y="48" width="20" height="20" as="geometry"/>
        </mxCell>
        <mxCell id="wuBHW3_i2wkjCvPNT6zz-43" value="3" style="strokeWidth=1;shadow=0;dashed=0;align=center;html=1;shape=mxgraph.mockup.forms.rrect;rSize=0;strokeColor=#999999;fontColor=#999999;" vertex="1" parent="wuBHW3_i2wkjCvPNT6zz-30">
          <mxGeometry x="50" y="48" width="20" height="20" as="geometry"/>
        </mxCell>
        <mxCell id="wuBHW3_i2wkjCvPNT6zz-44" value="4" style="strokeWidth=1;shadow=0;dashed=0;align=center;html=1;shape=mxgraph.mockup.forms.rrect;rSize=0;strokeColor=#999999;fontColor=#999999;" vertex="1" parent="wuBHW3_i2wkjCvPNT6zz-30">
          <mxGeometry x="70" y="48" width="20" height="20" as="geometry"/>
        </mxCell>
        <mxCell id="wuBHW3_i2wkjCvPNT6zz-45" value="5" style="strokeWidth=1;shadow=0;dashed=0;align=center;html=1;shape=mxgraph.mockup.forms.rrect;rSize=0;strokeColor=#999999;fontColor=#999999;" vertex="1" parent="wuBHW3_i2wkjCvPNT6zz-30">
          <mxGeometry x="90" y="48" width="20" height="20" as="geometry"/>
        </mxCell>
        <mxCell id="wuBHW3_i2wkjCvPNT6zz-46" value="6" style="strokeWidth=1;shadow=0;dashed=0;align=center;html=1;shape=mxgraph.mockup.forms.rrect;rSize=0;strokeColor=#999999;fontColor=#999999;" vertex="1" parent="wuBHW3_i2wkjCvPNT6zz-30">
          <mxGeometry x="110" y="48" width="20" height="20" as="geometry"/>
        </mxCell>
        <mxCell id="wuBHW3_i2wkjCvPNT6zz-47" value="7" style="strokeWidth=1;shadow=0;dashed=0;align=center;html=1;shape=mxgraph.mockup.forms.rrect;rSize=0;strokeColor=#999999;fontColor=#999999;" vertex="1" parent="wuBHW3_i2wkjCvPNT6zz-30">
          <mxGeometry x="130" y="48" width="20" height="20" as="geometry"/>
        </mxCell>
        <mxCell id="wuBHW3_i2wkjCvPNT6zz-48" value="8" style="strokeWidth=1;shadow=0;dashed=0;align=center;html=1;shape=mxgraph.mockup.forms.rrect;rSize=0;strokeColor=#999999;fontColor=#999999;" vertex="1" parent="wuBHW3_i2wkjCvPNT6zz-30">
          <mxGeometry x="10" y="68" width="20" height="20" as="geometry"/>
        </mxCell>
        <mxCell id="wuBHW3_i2wkjCvPNT6zz-49" value="9" style="strokeWidth=1;shadow=0;dashed=0;align=center;html=1;shape=mxgraph.mockup.forms.rrect;rSize=0;strokeColor=#999999;fontColor=#999999;" vertex="1" parent="wuBHW3_i2wkjCvPNT6zz-30">
          <mxGeometry x="30" y="68" width="20" height="20" as="geometry"/>
        </mxCell>
        <mxCell id="wuBHW3_i2wkjCvPNT6zz-50" value="10" style="strokeWidth=1;shadow=0;dashed=0;align=center;html=1;shape=mxgraph.mockup.forms.rrect;rSize=0;strokeColor=#999999;fontColor=#999999;" vertex="1" parent="wuBHW3_i2wkjCvPNT6zz-30">
          <mxGeometry x="50" y="68" width="20" height="20" as="geometry"/>
        </mxCell>
        <mxCell id="wuBHW3_i2wkjCvPNT6zz-51" value="11" style="strokeWidth=1;shadow=0;dashed=0;align=center;html=1;shape=mxgraph.mockup.forms.rrect;rSize=0;strokeColor=#999999;fontColor=#999999;" vertex="1" parent="wuBHW3_i2wkjCvPNT6zz-30">
          <mxGeometry x="70" y="68" width="20" height="20" as="geometry"/>
        </mxCell>
        <mxCell id="wuBHW3_i2wkjCvPNT6zz-52" value="12" style="strokeWidth=1;shadow=0;dashed=0;align=center;html=1;shape=mxgraph.mockup.forms.rrect;rSize=0;strokeColor=#999999;fontColor=#999999;" vertex="1" parent="wuBHW3_i2wkjCvPNT6zz-30">
          <mxGeometry x="90" y="68" width="20" height="20" as="geometry"/>
        </mxCell>
        <mxCell id="wuBHW3_i2wkjCvPNT6zz-53" value="13" style="strokeWidth=1;shadow=0;dashed=0;align=center;html=1;shape=mxgraph.mockup.forms.rrect;rSize=0;strokeColor=#999999;fontColor=#999999;" vertex="1" parent="wuBHW3_i2wkjCvPNT6zz-30">
          <mxGeometry x="110" y="68" width="20" height="20" as="geometry"/>
        </mxCell>
        <mxCell id="wuBHW3_i2wkjCvPNT6zz-54" value="14" style="strokeWidth=1;shadow=0;dashed=0;align=center;html=1;shape=mxgraph.mockup.forms.rrect;rSize=0;strokeColor=#999999;fontColor=#999999;" vertex="1" parent="wuBHW3_i2wkjCvPNT6zz-30">
          <mxGeometry x="130" y="68" width="20" height="20" as="geometry"/>
        </mxCell>
        <mxCell id="wuBHW3_i2wkjCvPNT6zz-55" value="15" style="strokeWidth=1;shadow=0;dashed=0;align=center;html=1;shape=mxgraph.mockup.forms.rrect;rSize=0;strokeColor=#999999;fontColor=#999999;" vertex="1" parent="wuBHW3_i2wkjCvPNT6zz-30">
          <mxGeometry x="10" y="88" width="20" height="20" as="geometry"/>
        </mxCell>
        <mxCell id="wuBHW3_i2wkjCvPNT6zz-56" value="16" style="strokeWidth=1;shadow=0;dashed=0;align=center;html=1;shape=mxgraph.mockup.forms.rrect;rSize=0;strokeColor=#999999;fontColor=#999999;" vertex="1" parent="wuBHW3_i2wkjCvPNT6zz-30">
          <mxGeometry x="30" y="88" width="20" height="20" as="geometry"/>
        </mxCell>
        <mxCell id="wuBHW3_i2wkjCvPNT6zz-57" value="17" style="strokeWidth=1;shadow=0;dashed=0;align=center;html=1;shape=mxgraph.mockup.forms.rrect;rSize=0;strokeColor=#999999;fontColor=#999999;" vertex="1" parent="wuBHW3_i2wkjCvPNT6zz-30">
          <mxGeometry x="50" y="88" width="20" height="20" as="geometry"/>
        </mxCell>
        <mxCell id="wuBHW3_i2wkjCvPNT6zz-58" value="18" style="strokeWidth=1;shadow=0;dashed=0;align=center;html=1;shape=mxgraph.mockup.forms.rrect;rSize=0;strokeColor=#999999;fontColor=#999999;" vertex="1" parent="wuBHW3_i2wkjCvPNT6zz-30">
          <mxGeometry x="70" y="88" width="20" height="20" as="geometry"/>
        </mxCell>
        <mxCell id="wuBHW3_i2wkjCvPNT6zz-59" value="19" style="strokeWidth=1;shadow=0;dashed=0;align=center;html=1;shape=mxgraph.mockup.forms.rrect;rSize=0;strokeColor=#999999;fontColor=#999999;" vertex="1" parent="wuBHW3_i2wkjCvPNT6zz-30">
          <mxGeometry x="90" y="88" width="20" height="20" as="geometry"/>
        </mxCell>
        <mxCell id="wuBHW3_i2wkjCvPNT6zz-60" value="20" style="strokeWidth=1;shadow=0;dashed=0;align=center;html=1;shape=mxgraph.mockup.forms.rrect;rSize=0;strokeColor=#999999;fontColor=#999999;" vertex="1" parent="wuBHW3_i2wkjCvPNT6zz-30">
          <mxGeometry x="110" y="88" width="20" height="20" as="geometry"/>
        </mxCell>
        <mxCell id="wuBHW3_i2wkjCvPNT6zz-61" value="21" style="strokeWidth=1;shadow=0;dashed=0;align=center;html=1;shape=mxgraph.mockup.forms.rrect;rSize=0;strokeColor=#999999;fontColor=#999999;" vertex="1" parent="wuBHW3_i2wkjCvPNT6zz-30">
          <mxGeometry x="130" y="88" width="20" height="20" as="geometry"/>
        </mxCell>
        <mxCell id="wuBHW3_i2wkjCvPNT6zz-62" value="22" style="strokeWidth=1;shadow=0;dashed=0;align=center;html=1;shape=mxgraph.mockup.forms.rrect;rSize=0;strokeColor=#999999;fontColor=#999999;" vertex="1" parent="wuBHW3_i2wkjCvPNT6zz-30">
          <mxGeometry x="10" y="108" width="20" height="20" as="geometry"/>
        </mxCell>
        <mxCell id="wuBHW3_i2wkjCvPNT6zz-63" value="23" style="strokeWidth=1;shadow=0;dashed=0;align=center;html=1;shape=mxgraph.mockup.forms.rrect;rSize=0;strokeColor=#999999;fontColor=#999999;" vertex="1" parent="wuBHW3_i2wkjCvPNT6zz-30">
          <mxGeometry x="30" y="108" width="20" height="20" as="geometry"/>
        </mxCell>
        <mxCell id="wuBHW3_i2wkjCvPNT6zz-64" value="25" style="strokeWidth=1;shadow=0;dashed=0;align=center;html=1;shape=mxgraph.mockup.forms.rrect;rSize=0;strokeColor=#999999;fontColor=#999999;" vertex="1" parent="wuBHW3_i2wkjCvPNT6zz-30">
          <mxGeometry x="70" y="108" width="20" height="20" as="geometry"/>
        </mxCell>
        <mxCell id="wuBHW3_i2wkjCvPNT6zz-65" value="26" style="strokeWidth=1;shadow=0;dashed=0;align=center;html=1;shape=mxgraph.mockup.forms.rrect;rSize=0;strokeColor=#999999;fontColor=#999999;" vertex="1" parent="wuBHW3_i2wkjCvPNT6zz-30">
          <mxGeometry x="90" y="108" width="20" height="20" as="geometry"/>
        </mxCell>
        <mxCell id="wuBHW3_i2wkjCvPNT6zz-66" value="27" style="strokeWidth=1;shadow=0;dashed=0;align=center;html=1;shape=mxgraph.mockup.forms.rrect;rSize=0;strokeColor=#999999;fontColor=#999999;" vertex="1" parent="wuBHW3_i2wkjCvPNT6zz-30">
          <mxGeometry x="110" y="108" width="20" height="20" as="geometry"/>
        </mxCell>
        <mxCell id="wuBHW3_i2wkjCvPNT6zz-67" value="28" style="strokeWidth=1;shadow=0;dashed=0;align=center;html=1;shape=mxgraph.mockup.forms.rrect;rSize=0;strokeColor=#999999;fontColor=#999999;" vertex="1" parent="wuBHW3_i2wkjCvPNT6zz-30">
          <mxGeometry x="130" y="108" width="20" height="20" as="geometry"/>
        </mxCell>
        <mxCell id="wuBHW3_i2wkjCvPNT6zz-68" value="29" style="strokeWidth=1;shadow=0;dashed=0;align=center;html=1;shape=mxgraph.mockup.forms.rrect;rSize=0;strokeColor=#999999;fontColor=#999999;" vertex="1" parent="wuBHW3_i2wkjCvPNT6zz-30">
          <mxGeometry x="10" y="128" width="20" height="20" as="geometry"/>
        </mxCell>
        <mxCell id="wuBHW3_i2wkjCvPNT6zz-69" value="30" style="strokeWidth=1;shadow=0;dashed=0;align=center;html=1;shape=mxgraph.mockup.forms.rrect;rSize=0;strokeColor=#999999;fontColor=#999999;" vertex="1" parent="wuBHW3_i2wkjCvPNT6zz-30">
          <mxGeometry x="30" y="128" width="20" height="20" as="geometry"/>
        </mxCell>
        <mxCell id="wuBHW3_i2wkjCvPNT6zz-70" value="31" style="strokeWidth=1;shadow=0;dashed=0;align=center;html=1;shape=mxgraph.mockup.forms.rrect;rSize=0;strokeColor=#999999;fontColor=#999999;" vertex="1" parent="wuBHW3_i2wkjCvPNT6zz-30">
          <mxGeometry x="50" y="128" width="20" height="20" as="geometry"/>
        </mxCell>
        <mxCell id="wuBHW3_i2wkjCvPNT6zz-71" value="1" style="strokeWidth=1;shadow=0;dashed=0;align=center;html=1;shape=mxgraph.mockup.forms.rrect;rSize=0;strokeColor=#999999;fontColor=#999999;fillColor=#ddeeff;" vertex="1" parent="wuBHW3_i2wkjCvPNT6zz-30">
          <mxGeometry x="70" y="128" width="20" height="20" as="geometry"/>
        </mxCell>
        <mxCell id="wuBHW3_i2wkjCvPNT6zz-72" value="2" style="strokeWidth=1;shadow=0;dashed=0;align=center;html=1;shape=mxgraph.mockup.forms.rrect;rSize=0;strokeColor=#999999;fontColor=#999999;fillColor=#ddeeff;" vertex="1" parent="wuBHW3_i2wkjCvPNT6zz-30">
          <mxGeometry x="90" y="128" width="20" height="20" as="geometry"/>
        </mxCell>
        <mxCell id="wuBHW3_i2wkjCvPNT6zz-73" value="3" style="strokeWidth=1;shadow=0;dashed=0;align=center;html=1;shape=mxgraph.mockup.forms.rrect;rSize=0;strokeColor=#999999;fontColor=#999999;fillColor=#ddeeff;" vertex="1" parent="wuBHW3_i2wkjCvPNT6zz-30">
          <mxGeometry x="110" y="128" width="20" height="20" as="geometry"/>
        </mxCell>
        <mxCell id="wuBHW3_i2wkjCvPNT6zz-74" value="4" style="strokeWidth=1;shadow=0;dashed=0;align=center;html=1;shape=mxgraph.mockup.forms.rrect;rSize=0;strokeColor=#999999;fontColor=#999999;fillColor=#ddeeff;" vertex="1" parent="wuBHW3_i2wkjCvPNT6zz-30">
          <mxGeometry x="130" y="128" width="20" height="20" as="geometry"/>
        </mxCell>
        <mxCell id="wuBHW3_i2wkjCvPNT6zz-75" value="5" style="strokeWidth=1;shadow=0;dashed=0;align=center;html=1;shape=mxgraph.mockup.forms.rrect;rSize=0;strokeColor=#999999;fontColor=#999999;fillColor=#ddeeff;" vertex="1" parent="wuBHW3_i2wkjCvPNT6zz-30">
          <mxGeometry x="10" y="148" width="20" height="20" as="geometry"/>
        </mxCell>
        <mxCell id="wuBHW3_i2wkjCvPNT6zz-76" value="6" style="strokeWidth=1;shadow=0;dashed=0;align=center;html=1;shape=mxgraph.mockup.forms.rrect;rSize=0;strokeColor=#999999;fontColor=#999999;fillColor=#ddeeff;" vertex="1" parent="wuBHW3_i2wkjCvPNT6zz-30">
          <mxGeometry x="30" y="148" width="20" height="20" as="geometry"/>
        </mxCell>
        <mxCell id="wuBHW3_i2wkjCvPNT6zz-77" value="7" style="strokeWidth=1;shadow=0;dashed=0;align=center;html=1;shape=mxgraph.mockup.forms.rrect;rSize=0;strokeColor=#999999;fontColor=#999999;fillColor=#ddeeff;" vertex="1" parent="wuBHW3_i2wkjCvPNT6zz-30">
          <mxGeometry x="50" y="148" width="20" height="20" as="geometry"/>
        </mxCell>
        <mxCell id="wuBHW3_i2wkjCvPNT6zz-78" value="8" style="strokeWidth=1;shadow=0;dashed=0;align=center;html=1;shape=mxgraph.mockup.forms.rrect;rSize=0;strokeColor=#999999;fontColor=#999999;fillColor=#ddeeff;" vertex="1" parent="wuBHW3_i2wkjCvPNT6zz-30">
          <mxGeometry x="70" y="148" width="20" height="20" as="geometry"/>
        </mxCell>
        <mxCell id="wuBHW3_i2wkjCvPNT6zz-79" value="9" style="strokeWidth=1;shadow=0;dashed=0;align=center;html=1;shape=mxgraph.mockup.forms.rrect;rSize=0;strokeColor=#999999;fontColor=#999999;fillColor=#ddeeff;" vertex="1" parent="wuBHW3_i2wkjCvPNT6zz-30">
          <mxGeometry x="90" y="148" width="20" height="20" as="geometry"/>
        </mxCell>
        <mxCell id="wuBHW3_i2wkjCvPNT6zz-80" value="10" style="strokeWidth=1;shadow=0;dashed=0;align=center;html=1;shape=mxgraph.mockup.forms.rrect;rSize=0;strokeColor=#999999;fontColor=#999999;fillColor=#ddeeff;" vertex="1" parent="wuBHW3_i2wkjCvPNT6zz-30">
          <mxGeometry x="110" y="148" width="20" height="20" as="geometry"/>
        </mxCell>
        <mxCell id="wuBHW3_i2wkjCvPNT6zz-81" value="11" style="strokeWidth=1;shadow=0;dashed=0;align=center;html=1;shape=mxgraph.mockup.forms.rrect;rSize=0;strokeColor=#999999;fontColor=#999999;fillColor=#ddeeff;" vertex="1" parent="wuBHW3_i2wkjCvPNT6zz-30">
          <mxGeometry x="130" y="148" width="20" height="20" as="geometry"/>
        </mxCell>
        <mxCell id="wuBHW3_i2wkjCvPNT6zz-82" value="24" style="strokeWidth=1;shadow=0;dashed=0;align=center;html=1;shape=mxgraph.mockup.forms.rrect;rSize=0;strokeColor=#ff0000;fontColor=#ffffff;strokeWidth=2;fillColor=#008cff;" vertex="1" parent="wuBHW3_i2wkjCvPNT6zz-30">
          <mxGeometry x="50" y="108" width="20" height="20" as="geometry"/>
        </mxCell>
        <mxCell id="wuBHW3_i2wkjCvPNT6zz-83" value="&lt;span style=&quot;color: rgba(0 , 0 , 0 , 0) ; font-family: monospace ; font-size: 0px&quot;&gt;%3CmxGraphModel%3E%3Croot%3E%3CmxCell%20id%3D%220%22%2F%3E%3CmxCell%20id%3D%221%22%20parent%3D%220%22%2F%3E%3CmxCell%20id%3D%222%22%20value%3D%22%22%20style%3D%22verticalLabelPosition%3Dbottom%3BverticalAlign%3Dtop%3Bhtml%3D1%3Bshadow%3D0%3Bdashed%3D0%3BstrokeWidth%3D1%3Bshape%3Dmxgraph.android.phone2%3BstrokeColor%3D%23c0c0c0%3B%22%20vertex%3D%221%22%20parent%3D%221%22%3E%3CmxGeometry%20x%3D%2210%22%20y%3D%2220%22%20width%3D%22200%22%20height%3D%22390%22%20as%3D%22geometry%22%2F%3E%3C%2FmxCell%3E%3CmxCell%20id%3D%223%22%20value%3D%22%22%20style%3D%22verticalLabelPosition%3Dbottom%3Bshadow%3D0%3Bdashed%3D0%3Balign%3Dcenter%3Bhtml%3D1%3BverticalAlign%3Dtop%3BstrokeWidth%3D1%3Bshape%3Dmxgraph.mockup.graphics.bubbleChart%3BstrokeColor%3Dnone%3BstrokeColor2%3Dnone%3BstrokeColor3%3D%23666666%3BfillColor2%3D%23008cff%3BfillColor3%3D%23dddddd%3B%22%20vertex%3D%221%22%20parent%3D%221%22%3E%3CmxGeometry%20x%3D%2220%22%20y%3D%2241.88%22%20width%3D%22180%22%20height%3D%22290%22%20as%3D%22geometry%22%2F%3E%3C%2FmxCell%3E%3CmxCell%20id%3D%224%22%20style%3D%22edgeStyle%3DorthogonalEdgeStyle%3Brounded%3D0%3BorthogonalLoop%3D1%3BjettySize%3Dauto%3Bhtml%3D1%3BexitX%3D0%3BexitY%3D0.75%3BexitDx%3D0%3BexitDy%3D0%3B%22%20edge%3D%221%22%20source%3D%2210%22%20target%3D%223%22%20parent%3D%221%22%3E%3CmxGeometry%20relative%3D%221%22%20as%3D%22geometry%22%2F%3E%3C%2FmxCell%3E%3CmxCell%20id%3D%225%22%20value%3D%22%22%20style%3D%22verticalLabelPosition%3Dbottom%3BverticalAlign%3Dtop%3Bhtml%3D1%3Bshape%3Dmxgraph.basic.rect%3BfillColor2%3Dnone%3BstrokeWidth%3D1%3Bsize%3D20%3Bindent%3D5%3B%22%20vertex%3D%221%22%20parent%3D%221%22%3E%3CmxGeometry%20x%3D%2220%22%20y%3D%22310%22%20width%3D%22180%22%20height%3D%2230%22%20as%3D%22geometry%22%2F%3E%3C%2FmxCell%3E%3CmxCell%20id%3D%226%22%20value%3D%22%22%20style%3D%22verticalLabelPosition%3Dbottom%3BverticalAlign%3Dtop%3Bhtml%3D1%3Bshadow%3D0%3Bdashed%3D0%3BstrokeWidth%3D2%3Bshape%3Dmxgraph.android.navigation_bar_5%3BfillColor%3D%231A1A1A%3BstrokeColor%3D%23999999%3B%22%20vertex%3D%221%22%20parent%3D%221%22%3E%3CmxGeometry%20x%3D%2217.5%22%20y%3D%22340%22%20width%3D%22185%22%20height%3D%2230%22%20as%3D%22geometry%22%2F%3E%3C%2FmxCell%3E%3CmxCell%20id%3D%227%22%20value%3D%22%22%20style%3D%22outlineConnect%3D0%3BfontColor%3D%23232F3E%3BgradientColor%3Dnone%3BfillColor%3D%2366B2FF%3BstrokeColor%3Dnone%3Bdashed%3D0%3BverticalLabelPosition%3Dbottom%3BverticalAlign%3Dtop%3Balign%3Dcenter%3Bhtml%3D1%3BfontSize%3D12%3BfontStyle%3D0%3Baspect%3Dfixed%3BpointerEvents%3D1%3Bshape%3Dmxgraph.aws4.container_registry_image%3B%22%20vertex%3D%221%22%20parent%3D%221%22%3E%3CmxGeometry%20x%3D%2260%22%20y%3D%22312%22%20width%3D%2228%22%20height%3D%2228%22%20as%3D%22geometry%22%2F%3E%3C%2FmxCell%3E%3CmxCell%20id%3D%228%22%20value%3D%22%22%20style%3D%22aspect%3Dfixed%3Bhtml%3D1%3Bpoints%3D%5B%5D%3Balign%3Dcenter%3Bimage%3BfontSize%3D12%3Bimage%3Dimg%2Flib%2Fmscae%2FShared_Dashboard.svg%3BfillColor%3D%23000000%3B%22%20vertex%3D%221%22%20parent%3D%221%22%3E%3CmxGeometry%20x%3D%22133.41%22%20y%3D%22310%22%20width%3D%2236.59%22%20height%3D%2230%22%20as%3D%22geometry%22%2F%3E%3C%2FmxCell%3E%3CmxCell%20id%3D%229%22%20value%3D%22%22%20style%3D%22ellipse%3BwhiteSpace%3Dwrap%3Bhtml%3D1%3Baspect%3Dfixed%3B%22%20vertex%3D%221%22%20parent%3D%221%22%3E%3CmxGeometry%20x%3D%22153%22%20y%3D%22263%22%20width%3D%2240%22%20height%3D%2240%22%20as%3D%22geometry%22%2F%3E%3C%2FmxCell%3E%3CmxCell%20id%3D%2210%22%20value%3D%22%22%20style%3D%22shape%3Dimage%3Bhtml%3D1%3BverticalAlign%3Dtop%3BverticalLabelPosition%3Dbottom%3BlabelBackgroundColor%3D%23ffffff%3BimageAspect%3D0%3Baspect%3Dfixed%3Bimage%3Dhttps%3A%2F%2Fcdn0.iconfinder.com%2Fdata%2Ficons%2Fgoogle-material-design-3-0%2F48%2Fic_today_48px-128.png%22%20vertex%3D%221%22%20parent%3D%221%22%3E%3CmxGeometry%20x%3D%22159.5%22%20y%3D%22269.5%22%20width%3D%2227%22%20height%3D%2227%22%20as%3D%22geometry%22%2F%3E%3C%2FmxCell%3E%3C%2Froot%3E%3C%2FmxGraphModel%3E&lt;/span&gt;" style="text;html=1;align=center;verticalAlign=middle;resizable=0;points=[];autosize=1;" vertex="1" parent="1">
          <mxGeometry x="108" y="537" width="20" height="20" as="geometry"/>
        </mxCell>
        <mxCell id="wuBHW3_i2wkjCvPNT6zz-84" value="" style="verticalLabelPosition=bottom;verticalAlign=top;html=1;shadow=0;dashed=0;strokeWidth=1;shape=mxgraph.android.phone2;strokeColor=#c0c0c0;" vertex="1" parent="1">
          <mxGeometry x="10" y="450" width="200" height="390" as="geometry"/>
        </mxCell>
        <mxCell id="wuBHW3_i2wkjCvPNT6zz-87" value="" style="verticalLabelPosition=bottom;verticalAlign=top;html=1;shape=mxgraph.basic.rect;fillColor2=none;strokeWidth=1;size=20;indent=5;" vertex="1" parent="1">
          <mxGeometry x="20" y="740" width="180" height="30" as="geometry"/>
        </mxCell>
        <mxCell id="wuBHW3_i2wkjCvPNT6zz-88" value="" style="verticalLabelPosition=bottom;verticalAlign=top;html=1;shadow=0;dashed=0;strokeWidth=2;shape=mxgraph.android.navigation_bar_5;fillColor=#1A1A1A;strokeColor=#999999;" vertex="1" parent="1">
          <mxGeometry x="17.5" y="770" width="185" height="30" as="geometry"/>
        </mxCell>
        <mxCell id="wuBHW3_i2wkjCvPNT6zz-91" value="" style="ellipse;whiteSpace=wrap;html=1;aspect=fixed;gradientColor=none;strokeColor=#FFB570;fillColor=#FFB570;" vertex="1" parent="1">
          <mxGeometry x="153" y="693" width="40" height="40" as="geometry"/>
        </mxCell>
        <mxCell id="wuBHW3_i2wkjCvPNT6zz-92" value="" style="shape=image;html=1;verticalAlign=top;verticalLabelPosition=bottom;labelBackgroundColor=#ffffff;imageAspect=0;aspect=fixed;image=https://cdn0.iconfinder.com/data/icons/google-material-design-3-0/48/ic_today_48px-128.png" vertex="1" parent="1">
          <mxGeometry x="159.5" y="699.5" width="27" height="27" as="geometry"/>
        </mxCell>
        <mxCell id="wuBHW3_i2wkjCvPNT6zz-93" value="" style="shape=image;html=1;verticalAlign=top;verticalLabelPosition=bottom;labelBackgroundColor=#ffffff;imageAspect=0;aspect=fixed;image=https://cdn2.iconfinder.com/data/icons/space-82/64/commet-128.png;strokeColor=#000000;fillColor=#66B2FF;" vertex="1" parent="1">
          <mxGeometry x="46" y="108" width="128" height="128" as="geometry"/>
        </mxCell>
        <mxCell id="wuBHW3_i2wkjCvPNT6zz-95" value="" style="shape=image;html=1;verticalAlign=top;verticalLabelPosition=bottom;labelBackgroundColor=#ffffff;imageAspect=0;aspect=fixed;image=https://cdn2.iconfinder.com/data/icons/space-82/64/commet-128.png;strokeColor=#000000;fillColor=#66B2FF;" vertex="1" parent="1">
          <mxGeometry x="46" y="530" width="128" height="128" as="geometry"/>
        </mxCell>
        <mxCell id="wuBHW3_i2wkjCvPNT6zz-96" value="" style="curved=1;endArrow=classic;html=1;" edge="1" parent="1">
          <mxGeometry width="50" height="50" relative="1" as="geometry">
            <mxPoint x="46" y="1230" as="sourcePoint"/>
            <mxPoint x="96" y="1180" as="targetPoint"/>
            <Array as="points">
              <mxPoint x="96" y="1230"/>
              <mxPoint x="46" y="1180"/>
            </Array>
          </mxGeometry>
        </mxCell>
        <mxCell id="wuBHW3_i2wkjCvPNT6zz-97" value="" style="endArrow=classic;html=1;" edge="1" parent="1">
          <mxGeometry width="50" height="50" relative="1" as="geometry">
            <mxPoint x="10" y="980" as="sourcePoint"/>
            <mxPoint x="60" y="930" as="targetPoint"/>
          </mxGeometry>
        </mxCell>
        <mxCell id="wuBHW3_i2wkjCvPNT6zz-98" value="" style="curved=1;endArrow=classic;html=1;" edge="1" parent="1">
          <mxGeometry width="50" height="50" relative="1" as="geometry">
            <mxPoint x="10" y="1060" as="sourcePoint"/>
            <mxPoint x="60" y="1010" as="targetPoint"/>
            <Array as="points">
              <mxPoint x="60" y="1060"/>
              <mxPoint x="10" y="1010"/>
            </Array>
          </mxGeometry>
        </mxCell>
        <mxCell id="wuBHW3_i2wkjCvPNT6zz-99" value="" style="edgeStyle=elbowEdgeStyle;elbow=horizontal;endArrow=classic;html=1;" edge="1" parent="1">
          <mxGeometry width="50" height="50" relative="1" as="geometry">
            <mxPoint x="500" y="607" as="sourcePoint"/>
            <mxPoint x="550" y="557" as="targetPoint"/>
          </mxGeometry>
        </mxCell>
        <mxCell id="wuBHW3_i2wkjCvPNT6zz-100" value="" style="edgeStyle=elbowEdgeStyle;elbow=vertical;endArrow=classic;html=1;" edge="1" parent="1">
          <mxGeometry width="50" height="50" relative="1" as="geometry">
            <mxPoint x="10" y="1210" as="sourcePoint"/>
            <mxPoint x="60" y="1160" as="targetPoint"/>
          </mxGeometry>
        </mxCell>
        <mxCell id="wuBHW3_i2wkjCvPNT6zz-101" value="" style="edgeStyle=segmentEdgeStyle;endArrow=classic;html=1;" edge="1" parent="1">
          <mxGeometry width="50" height="50" relative="1" as="geometry">
            <mxPoint x="499.67" y="246.17" as="sourcePoint"/>
            <mxPoint x="610" y="160" as="targetPoint"/>
            <Array as="points">
              <mxPoint x="500" y="226"/>
              <mxPoint x="610" y="226"/>
              <mxPoint x="610" y="184"/>
            </Array>
          </mxGeometry>
        </mxCell>
        <mxCell id="wuBHW3_i2wkjCvPNT6zz-103" value="calender lets you select a&lt;br&gt;&amp;nbsp;day so you can see&lt;br&gt;&amp;nbsp;the photo for that day." style="text;html=1;align=center;verticalAlign=middle;resizable=0;points=[];autosize=1;" vertex="1" parent="1">
          <mxGeometry x="535" y="110" width="150" height="50" as="geometry"/>
        </mxCell>
        <mxCell id="wuBHW3_i2wkjCvPNT6zz-104" value="&lt;font style=&quot;font-size: 5px&quot;&gt;dashboard&lt;/font&gt;" style="text;html=1;align=center;verticalAlign=middle;resizable=0;points=[];autosize=1;" vertex="1" parent="1">
          <mxGeometry x="434.31" y="330" width="40" height="20" as="geometry"/>
        </mxCell>
        <mxCell id="wuBHW3_i2wkjCvPNT6zz-105" value="&lt;font style=&quot;font-size: 5px&quot;&gt;Image&lt;/font&gt;" style="text;html=1;align=center;verticalAlign=middle;resizable=0;points=[];autosize=1;" vertex="1" parent="1">
          <mxGeometry x="355" y="330" width="30" height="20" as="geometry"/>
        </mxCell>
        <mxCell id="wuBHW3_i2wkjCvPNT6zz-106" value="&lt;span style=&quot;color: rgba(0 , 0 , 0 , 0) ; font-family: monospace ; font-size: 0px&quot;&gt;%3CmxGraphModel%3E%3Croot%3E%3CmxCell%20id%3D%220%22%2F%3E%3CmxCell%20id%3D%221%22%20parent%3D%220%22%2F%3E%3CmxCell%20id%3D%222%22%20value%3D%22%22%20style%3D%22verticalLabelPosition%3Dbottom%3BverticalAlign%3Dtop%3Bhtml%3D1%3Bshadow%3D0%3Bdashed%3D0%3BstrokeWidth%3D1%3Bshape%3Dmxgraph.android.phone2%3BstrokeColor%3D%23c0c0c0%3B%22%20vertex%3D%221%22%20parent%3D%221%22%3E%3CmxGeometry%20x%3D%2210%22%20y%3D%2220%22%20width%3D%22200%22%20height%3D%22390%22%20as%3D%22geometry%22%2F%3E%3C%2FmxCell%3E%3CmxCell%20id%3D%223%22%20value%3D%22%22%20style%3D%22verticalLabelPosition%3Dbottom%3Bshadow%3D0%3Bdashed%3D0%3Balign%3Dcenter%3Bhtml%3D1%3BverticalAlign%3Dtop%3BstrokeWidth%3D1%3Bshape%3Dmxgraph.mockup.graphics.bubbleChart%3BstrokeColor%3Dnone%3BstrokeColor2%3Dnone%3BstrokeColor3%3D%23666666%3BfillColor2%3D%23008cff%3BfillColor3%3D%23dddddd%3B%22%20vertex%3D%221%22%20parent%3D%221%22%3E%3CmxGeometry%20x%3D%2220%22%20y%3D%2241.88%22%20width%3D%22180%22%20height%3D%22290%22%20as%3D%22geometry%22%2F%3E%3C%2FmxCell%3E%3CmxCell%20id%3D%224%22%20style%3D%22edgeStyle%3DorthogonalEdgeStyle%3Brounded%3D0%3BorthogonalLoop%3D1%3BjettySize%3Dauto%3Bhtml%3D1%3BexitX%3D0%3BexitY%3D0.75%3BexitDx%3D0%3BexitDy%3D0%3B%22%20edge%3D%221%22%20source%3D%2210%22%20target%3D%223%22%20parent%3D%221%22%3E%3CmxGeometry%20relative%3D%221%22%20as%3D%22geometry%22%2F%3E%3C%2FmxCell%3E%3CmxCell%20id%3D%225%22%20value%3D%22%22%20style%3D%22verticalLabelPosition%3Dbottom%3BverticalAlign%3Dtop%3Bhtml%3D1%3Bshape%3Dmxgraph.basic.rect%3BfillColor2%3Dnone%3BstrokeWidth%3D1%3Bsize%3D20%3Bindent%3D5%3B%22%20vertex%3D%221%22%20parent%3D%221%22%3E%3CmxGeometry%20x%3D%2220%22%20y%3D%22310%22%20width%3D%22180%22%20height%3D%2230%22%20as%3D%22geometry%22%2F%3E%3C%2FmxCell%3E%3CmxCell%20id%3D%226%22%20value%3D%22%22%20style%3D%22verticalLabelPosition%3Dbottom%3BverticalAlign%3Dtop%3Bhtml%3D1%3Bshadow%3D0%3Bdashed%3D0%3BstrokeWidth%3D2%3Bshape%3Dmxgraph.android.navigation_bar_5%3BfillColor%3D%231A1A1A%3BstrokeColor%3D%23999999%3B%22%20vertex%3D%221%22%20parent%3D%221%22%3E%3CmxGeometry%20x%3D%2217.5%22%20y%3D%22340%22%20width%3D%22185%22%20height%3D%2230%22%20as%3D%22geometry%22%2F%3E%3C%2FmxCell%3E%3CmxCell%20id%3D%227%22%20value%3D%22%22%20style%3D%22outlineConnect%3D0%3BfontColor%3D%23232F3E%3BgradientColor%3Dnone%3BfillColor%3D%2366B2FF%3BstrokeColor%3Dnone%3Bdashed%3D0%3BverticalLabelPosition%3Dbottom%3BverticalAlign%3Dtop%3Balign%3Dcenter%3Bhtml%3D1%3BfontSize%3D12%3BfontStyle%3D0%3Baspect%3Dfixed%3BpointerEvents%3D1%3Bshape%3Dmxgraph.aws4.container_registry_image%3B%22%20vertex%3D%221%22%20parent%3D%221%22%3E%3CmxGeometry%20x%3D%2260%22%20y%3D%22312%22%20width%3D%2228%22%20height%3D%2228%22%20as%3D%22geometry%22%2F%3E%3C%2FmxCell%3E%3CmxCell%20id%3D%228%22%20value%3D%22%22%20style%3D%22aspect%3Dfixed%3Bhtml%3D1%3Bpoints%3D%5B%5D%3Balign%3Dcenter%3Bimage%3BfontSize%3D12%3Bimage%3Dimg%2Flib%2Fmscae%2FShared_Dashboard.svg%3BfillColor%3D%23000000%3B%22%20vertex%3D%221%22%20parent%3D%221%22%3E%3CmxGeometry%20x%3D%22133.41%22%20y%3D%22310%22%20width%3D%2236.59%22%20height%3D%2230%22%20as%3D%22geometry%22%2F%3E%3C%2FmxCell%3E%3CmxCell%20id%3D%229%22%20value%3D%22%22%20style%3D%22ellipse%3BwhiteSpace%3Dwrap%3Bhtml%3D1%3Baspect%3Dfixed%3B%22%20vertex%3D%221%22%20parent%3D%221%22%3E%3CmxGeometry%20x%3D%22153%22%20y%3D%22263%22%20width%3D%2240%22%20height%3D%2240%22%20as%3D%22geometry%22%2F%3E%3C%2FmxCell%3E%3CmxCell%20id%3D%2210%22%20value%3D%22%22%20style%3D%22shape%3Dimage%3Bhtml%3D1%3BverticalAlign%3Dtop%3BverticalLabelPosition%3Dbottom%3BlabelBackgroundColor%3D%23ffffff%3BimageAspect%3D0%3Baspect%3Dfixed%3Bimage%3Dhttps%3A%2F%2Fcdn0.iconfinder.com%2Fdata%2Ficons%2Fgoogle-material-design-3-0%2F48%2Fic_today_48px-128.png%22%20vertex%3D%221%22%20parent%3D%221%22%3E%3CmxGeometry%20x%3D%22159.5%22%20y%3D%22269.5%22%20width%3D%2227%22%20height%3D%2227%22%20as%3D%22geometry%22%2F%3E%3C%2FmxCell%3E%3C%2Froot%3E%3C%2FmxGraphModel%3E&lt;/span&gt;" style="text;html=1;align=center;verticalAlign=middle;resizable=0;points=[];autosize=1;" vertex="1" parent="1">
          <mxGeometry x="408" y="537" width="20" height="20" as="geometry"/>
        </mxCell>
        <mxCell id="wuBHW3_i2wkjCvPNT6zz-174" value="&lt;span style=&quot;color: rgba(0 , 0 , 0 , 0) ; font-family: monospace ; font-size: 0px&quot;&gt;%3CmxGraphModel%3E%3Croot%3E%3CmxCell%20id%3D%220%22%2F%3E%3CmxCell%20id%3D%221%22%20parent%3D%220%22%2F%3E%3CmxCell%20id%3D%222%22%20value%3D%22%22%20style%3D%22verticalLabelPosition%3Dbottom%3BverticalAlign%3Dtop%3Bhtml%3D1%3Bshadow%3D0%3Bdashed%3D0%3BstrokeWidth%3D1%3Bshape%3Dmxgraph.android.phone2%3BstrokeColor%3D%23c0c0c0%3B%22%20vertex%3D%221%22%20parent%3D%221%22%3E%3CmxGeometry%20x%3D%2210%22%20y%3D%2220%22%20width%3D%22200%22%20height%3D%22390%22%20as%3D%22geometry%22%2F%3E%3C%2FmxCell%3E%3CmxCell%20id%3D%223%22%20value%3D%22%22%20style%3D%22verticalLabelPosition%3Dbottom%3Bshadow%3D0%3Bdashed%3D0%3Balign%3Dcenter%3Bhtml%3D1%3BverticalAlign%3Dtop%3BstrokeWidth%3D1%3Bshape%3Dmxgraph.mockup.graphics.bubbleChart%3BstrokeColor%3Dnone%3BstrokeColor2%3Dnone%3BstrokeColor3%3D%23666666%3BfillColor2%3D%23008cff%3BfillColor3%3D%23dddddd%3B%22%20vertex%3D%221%22%20parent%3D%221%22%3E%3CmxGeometry%20x%3D%2220%22%20y%3D%2241.88%22%20width%3D%22180%22%20height%3D%22290%22%20as%3D%22geometry%22%2F%3E%3C%2FmxCell%3E%3CmxCell%20id%3D%224%22%20style%3D%22edgeStyle%3DorthogonalEdgeStyle%3Brounded%3D0%3BorthogonalLoop%3D1%3BjettySize%3Dauto%3Bhtml%3D1%3BexitX%3D0%3BexitY%3D0.75%3BexitDx%3D0%3BexitDy%3D0%3B%22%20edge%3D%221%22%20source%3D%2210%22%20target%3D%223%22%20parent%3D%221%22%3E%3CmxGeometry%20relative%3D%221%22%20as%3D%22geometry%22%2F%3E%3C%2FmxCell%3E%3CmxCell%20id%3D%225%22%20value%3D%22%22%20style%3D%22verticalLabelPosition%3Dbottom%3BverticalAlign%3Dtop%3Bhtml%3D1%3Bshape%3Dmxgraph.basic.rect%3BfillColor2%3Dnone%3BstrokeWidth%3D1%3Bsize%3D20%3Bindent%3D5%3B%22%20vertex%3D%221%22%20parent%3D%221%22%3E%3CmxGeometry%20x%3D%2220%22%20y%3D%22310%22%20width%3D%22180%22%20height%3D%2230%22%20as%3D%22geometry%22%2F%3E%3C%2FmxCell%3E%3CmxCell%20id%3D%226%22%20value%3D%22%22%20style%3D%22verticalLabelPosition%3Dbottom%3BverticalAlign%3Dtop%3Bhtml%3D1%3Bshadow%3D0%3Bdashed%3D0%3BstrokeWidth%3D2%3Bshape%3Dmxgraph.android.navigation_bar_5%3BfillColor%3D%231A1A1A%3BstrokeColor%3D%23999999%3B%22%20vertex%3D%221%22%20parent%3D%221%22%3E%3CmxGeometry%20x%3D%2217.5%22%20y%3D%22340%22%20width%3D%22185%22%20height%3D%2230%22%20as%3D%22geometry%22%2F%3E%3C%2FmxCell%3E%3CmxCell%20id%3D%227%22%20value%3D%22%22%20style%3D%22outlineConnect%3D0%3BfontColor%3D%23232F3E%3BgradientColor%3Dnone%3BfillColor%3D%2366B2FF%3BstrokeColor%3Dnone%3Bdashed%3D0%3BverticalLabelPosition%3Dbottom%3BverticalAlign%3Dtop%3Balign%3Dcenter%3Bhtml%3D1%3BfontSize%3D12%3BfontStyle%3D0%3Baspect%3Dfixed%3BpointerEvents%3D1%3Bshape%3Dmxgraph.aws4.container_registry_image%3B%22%20vertex%3D%221%22%20parent%3D%221%22%3E%3CmxGeometry%20x%3D%2260%22%20y%3D%22312%22%20width%3D%2228%22%20height%3D%2228%22%20as%3D%22geometry%22%2F%3E%3C%2FmxCell%3E%3CmxCell%20id%3D%228%22%20value%3D%22%22%20style%3D%22aspect%3Dfixed%3Bhtml%3D1%3Bpoints%3D%5B%5D%3Balign%3Dcenter%3Bimage%3BfontSize%3D12%3Bimage%3Dimg%2Flib%2Fmscae%2FShared_Dashboard.svg%3BfillColor%3D%23000000%3B%22%20vertex%3D%221%22%20parent%3D%221%22%3E%3CmxGeometry%20x%3D%22133.41%22%20y%3D%22310%22%20width%3D%2236.59%22%20height%3D%2230%22%20as%3D%22geometry%22%2F%3E%3C%2FmxCell%3E%3CmxCell%20id%3D%229%22%20value%3D%22%22%20style%3D%22ellipse%3BwhiteSpace%3Dwrap%3Bhtml%3D1%3Baspect%3Dfixed%3B%22%20vertex%3D%221%22%20parent%3D%221%22%3E%3CmxGeometry%20x%3D%22153%22%20y%3D%22263%22%20width%3D%2240%22%20height%3D%2240%22%20as%3D%22geometry%22%2F%3E%3C%2FmxCell%3E%3CmxCell%20id%3D%2210%22%20value%3D%22%22%20style%3D%22shape%3Dimage%3Bhtml%3D1%3BverticalAlign%3Dtop%3BverticalLabelPosition%3Dbottom%3BlabelBackgroundColor%3D%23ffffff%3BimageAspect%3D0%3Baspect%3Dfixed%3Bimage%3Dhttps%3A%2F%2Fcdn0.iconfinder.com%2Fdata%2Ficons%2Fgoogle-material-design-3-0%2F48%2Fic_today_48px-128.png%22%20vertex%3D%221%22%20parent%3D%221%22%3E%3CmxGeometry%20x%3D%22159.5%22%20y%3D%22269.5%22%20width%3D%2227%22%20height%3D%2227%22%20as%3D%22geometry%22%2F%3E%3C%2FmxCell%3E%3C%2Froot%3E%3C%2FmxGraphModel%3E&lt;/span&gt;" style="text;html=1;align=center;verticalAlign=middle;resizable=0;points=[];autosize=1;" vertex="1" parent="1">
          <mxGeometry x="408" y="637" width="20" height="20" as="geometry"/>
        </mxCell>
        <mxCell id="wuBHW3_i2wkjCvPNT6zz-107" value="" style="verticalLabelPosition=bottom;verticalAlign=top;html=1;shadow=0;dashed=0;strokeWidth=1;shape=mxgraph.android.phone2;strokeColor=#c0c0c0;" vertex="1" parent="1">
          <mxGeometry x="310" y="450" width="200" height="390" as="geometry"/>
        </mxCell>
        <mxCell id="wuBHW3_i2wkjCvPNT6zz-108" value="" style="verticalLabelPosition=bottom;verticalAlign=top;html=1;shape=mxgraph.basic.rect;fillColor2=none;strokeWidth=1;size=20;indent=5;" vertex="1" parent="1">
          <mxGeometry x="320" y="740" width="180" height="30" as="geometry"/>
        </mxCell>
        <mxCell id="wuBHW3_i2wkjCvPNT6zz-109" value="" style="verticalLabelPosition=bottom;verticalAlign=top;html=1;shadow=0;dashed=0;strokeWidth=2;shape=mxgraph.android.navigation_bar_5;fillColor=#1A1A1A;strokeColor=#999999;" vertex="1" parent="1">
          <mxGeometry x="317.5" y="770" width="185" height="30" as="geometry"/>
        </mxCell>
        <mxCell id="wuBHW3_i2wkjCvPNT6zz-112" value="" style="ellipse;whiteSpace=wrap;html=1;aspect=fixed;gradientColor=none;strokeColor=#FFB570;fillColor=#FFB570;" vertex="1" parent="1">
          <mxGeometry x="453" y="693" width="40" height="40" as="geometry"/>
        </mxCell>
        <mxCell id="wuBHW3_i2wkjCvPNT6zz-113" value="" style="shape=image;html=1;verticalAlign=top;verticalLabelPosition=bottom;labelBackgroundColor=#ffffff;imageAspect=0;aspect=fixed;image=https://cdn0.iconfinder.com/data/icons/google-material-design-3-0/48/ic_today_48px-128.png" vertex="1" parent="1">
          <mxGeometry x="459.5" y="699.5" width="27" height="27" as="geometry"/>
        </mxCell>
        <mxCell id="wuBHW3_i2wkjCvPNT6zz-115" value="" style="shape=flexArrow;endArrow=classic;html=1;width=13;endSize=6.03;exitX=0.02;exitY=0.915;exitDx=0;exitDy=0;exitPerimeter=0;entryX=0.835;entryY=0.046;entryDx=0;entryDy=0;entryPerimeter=0;fillColor=#66B2FF;strokeColor=#000000;" edge="1" parent="1" source="wuBHW3_i2wkjCvPNT6zz-5" target="wuBHW3_i2wkjCvPNT6zz-84">
          <mxGeometry width="50" height="50" relative="1" as="geometry">
            <mxPoint x="297.97" y="390" as="sourcePoint"/>
            <mxPoint x="220" y="450" as="targetPoint"/>
          </mxGeometry>
        </mxCell>
        <mxCell id="wuBHW3_i2wkjCvPNT6zz-139" value="" style="verticalLabelPosition=bottom;shadow=0;dashed=0;align=center;html=1;verticalAlign=top;strokeWidth=1;shape=mxgraph.mockup.graphics.simpleIcon;strokeColor=#999999;fillColor=#ffffff;" vertex="1" parent="1">
          <mxGeometry x="10" y="1620" width="50" height="50" as="geometry"/>
        </mxCell>
        <mxCell id="wuBHW3_i2wkjCvPNT6zz-140" value="" style="verticalLabelPosition=bottom;shadow=0;dashed=0;align=center;html=1;verticalAlign=top;strokeWidth=1;shape=mxgraph.mockup.graphics.simpleIcon;strokeColor=#999999;fillColor=#ffffff;" vertex="1" parent="1">
          <mxGeometry x="85" y="1620" width="50" height="50" as="geometry"/>
        </mxCell>
        <mxCell id="wuBHW3_i2wkjCvPNT6zz-141" value="" style="verticalLabelPosition=bottom;shadow=0;dashed=0;align=center;html=1;verticalAlign=top;strokeWidth=1;shape=mxgraph.mockup.graphics.simpleIcon;strokeColor=#999999;fillColor=#ffffff;" vertex="1" parent="1">
          <mxGeometry x="160" y="1620" width="50" height="50" as="geometry"/>
        </mxCell>
        <mxCell id="wuBHW3_i2wkjCvPNT6zz-177" value="" style="rounded=0;whiteSpace=wrap;html=1;strokeColor=#FFB570;fillColor=#66B2FF;gradientColor=none;fontColor=#3399FF;" vertex="1" parent="1">
          <mxGeometry x="17.5" y="480" width="180" height="20" as="geometry"/>
        </mxCell>
        <mxCell id="wuBHW3_i2wkjCvPNT6zz-178" value="&lt;font color=&quot;#ffffff&quot;&gt;Image&lt;/font&gt;" style="text;html=1;align=center;verticalAlign=middle;resizable=0;points=[];autosize=1;fontColor=#3399FF;" vertex="1" parent="1">
          <mxGeometry x="17.5" y="480" width="50" height="20" as="geometry"/>
        </mxCell>
        <mxCell id="wuBHW3_i2wkjCvPNT6zz-179" value="" style="rounded=0;whiteSpace=wrap;html=1;strokeColor=#FFB570;fillColor=#66B2FF;gradientColor=none;fontColor=#3399FF;" vertex="1" parent="1">
          <mxGeometry x="320" y="480" width="180" height="20" as="geometry"/>
        </mxCell>
        <mxCell id="wuBHW3_i2wkjCvPNT6zz-180" value="&lt;font color=&quot;#ffffff&quot;&gt;Image&lt;/font&gt;" style="text;html=1;align=center;verticalAlign=middle;resizable=0;points=[];autosize=1;fontColor=#3399FF;" vertex="1" parent="1">
          <mxGeometry x="320" y="480" width="50" height="20" as="geometry"/>
        </mxCell>
        <mxCell id="wuBHW3_i2wkjCvPNT6zz-183" value="&lt;font color=&quot;#ffffff&quot;&gt;Image&lt;/font&gt;" style="text;html=1;align=center;verticalAlign=middle;resizable=0;points=[];autosize=1;fontColor=#3399FF;" vertex="1" parent="1">
          <mxGeometry x="37.5" y="500" width="50" height="20" as="geometry"/>
        </mxCell>
        <mxCell id="wuBHW3_i2wkjCvPNT6zz-184" value="" style="rounded=0;whiteSpace=wrap;html=1;strokeColor=#FFB570;fillColor=#66B2FF;gradientColor=none;fontColor=#3399FF;" vertex="1" parent="1">
          <mxGeometry x="320" y="50" width="180" height="20" as="geometry"/>
        </mxCell>
        <mxCell id="wuBHW3_i2wkjCvPNT6zz-185" value="&lt;font color=&quot;#ffffff&quot;&gt;Image&lt;/font&gt;" style="text;html=1;align=center;verticalAlign=middle;resizable=0;points=[];autosize=1;fontColor=#3399FF;" vertex="1" parent="1">
          <mxGeometry x="320" y="50" width="50" height="20" as="geometry"/>
        </mxCell>
        <mxCell id="wuBHW3_i2wkjCvPNT6zz-186" value="&lt;font color=&quot;#ffffff&quot;&gt;Image&lt;/font&gt;" style="text;html=1;fontColor=#3399FF;" vertex="1" parent="1">
          <mxGeometry x="20" y="50" width="60" height="30" as="geometry"/>
        </mxCell>
        <mxCell id="wuBHW3_i2wkjCvPNT6zz-204" value="" style="verticalLabelPosition=bottom;verticalAlign=top;html=1;shape=mxgraph.basic.rect;fillColor2=none;strokeWidth=1;size=20;indent=5;" vertex="1" parent="1">
          <mxGeometry x="20" y="309.5" width="180" height="30" as="geometry"/>
        </mxCell>
        <mxCell id="wuBHW3_i2wkjCvPNT6zz-205" value="" style="aspect=fixed;html=1;points=[];align=center;image;fontSize=12;image=img/lib/mscae/Shared_Dashboard.svg;fillColor=#000000;" vertex="1" parent="1">
          <mxGeometry x="142.11" y="309.5" width="24.39" height="20" as="geometry"/>
        </mxCell>
        <mxCell id="wuBHW3_i2wkjCvPNT6zz-206" value="" style="outlineConnect=0;fontColor=#232F3E;gradientColor=none;fillColor=#66B2FF;strokeColor=none;dashed=0;verticalLabelPosition=bottom;verticalAlign=top;align=center;html=1;fontSize=12;fontStyle=0;aspect=fixed;pointerEvents=1;shape=mxgraph.aws4.container_registry_image;" vertex="1" parent="1">
          <mxGeometry x="60" y="309.5" width="20" height="20" as="geometry"/>
        </mxCell>
        <mxCell id="wuBHW3_i2wkjCvPNT6zz-207" value="&lt;font style=&quot;font-size: 5px&quot;&gt;dashboard&lt;/font&gt;" style="text;html=1;align=center;verticalAlign=middle;resizable=0;points=[];autosize=1;" vertex="1" parent="1">
          <mxGeometry x="134.31" y="319.5" width="40" height="20" as="geometry"/>
        </mxCell>
        <mxCell id="wuBHW3_i2wkjCvPNT6zz-208" value="&lt;font style=&quot;font-size: 5px&quot;&gt;Image&lt;/font&gt;" style="text;html=1;align=center;verticalAlign=middle;resizable=0;points=[];autosize=1;" vertex="1" parent="1">
          <mxGeometry x="55" y="319.5" width="30" height="20" as="geometry"/>
        </mxCell>
        <mxCell id="wuBHW3_i2wkjCvPNT6zz-209" value="" style="verticalLabelPosition=bottom;verticalAlign=top;html=1;shape=mxgraph.basic.rect;fillColor2=none;strokeWidth=1;size=20;indent=5;" vertex="1" parent="1">
          <mxGeometry x="320" y="740" width="180" height="30" as="geometry"/>
        </mxCell>
        <mxCell id="wuBHW3_i2wkjCvPNT6zz-210" value="" style="aspect=fixed;html=1;points=[];align=center;image;fontSize=12;image=img/lib/mscae/Shared_Dashboard.svg;fillColor=#000000;" vertex="1" parent="1">
          <mxGeometry x="442.11" y="740" width="24.39" height="20" as="geometry"/>
        </mxCell>
        <mxCell id="wuBHW3_i2wkjCvPNT6zz-211" value="" style="outlineConnect=0;fontColor=#232F3E;gradientColor=none;fillColor=#66B2FF;strokeColor=none;dashed=0;verticalLabelPosition=bottom;verticalAlign=top;align=center;html=1;fontSize=12;fontStyle=0;aspect=fixed;pointerEvents=1;shape=mxgraph.aws4.container_registry_image;" vertex="1" parent="1">
          <mxGeometry x="360" y="740" width="20" height="20" as="geometry"/>
        </mxCell>
        <mxCell id="wuBHW3_i2wkjCvPNT6zz-212" value="&lt;font style=&quot;font-size: 5px&quot;&gt;dashboard&lt;/font&gt;" style="text;html=1;align=center;verticalAlign=middle;resizable=0;points=[];autosize=1;" vertex="1" parent="1">
          <mxGeometry x="434.30999999999995" y="750" width="40" height="20" as="geometry"/>
        </mxCell>
        <mxCell id="wuBHW3_i2wkjCvPNT6zz-213" value="&lt;font style=&quot;font-size: 5px&quot;&gt;Image&lt;/font&gt;" style="text;html=1;align=center;verticalAlign=middle;resizable=0;points=[];autosize=1;" vertex="1" parent="1">
          <mxGeometry x="355" y="750" width="30" height="20" as="geometry"/>
        </mxCell>
        <mxCell id="wuBHW3_i2wkjCvPNT6zz-214" value="" style="verticalLabelPosition=bottom;verticalAlign=top;html=1;shape=mxgraph.basic.rect;fillColor2=none;strokeWidth=1;size=20;indent=5;" vertex="1" parent="1">
          <mxGeometry x="17.5" y="740" width="180" height="30" as="geometry"/>
        </mxCell>
        <mxCell id="wuBHW3_i2wkjCvPNT6zz-215" value="" style="aspect=fixed;html=1;points=[];align=center;image;fontSize=12;image=img/lib/mscae/Shared_Dashboard.svg;fillColor=#000000;" vertex="1" parent="1">
          <mxGeometry x="139.61" y="740" width="24.39" height="20" as="geometry"/>
        </mxCell>
        <mxCell id="wuBHW3_i2wkjCvPNT6zz-216" value="" style="outlineConnect=0;fontColor=#232F3E;gradientColor=none;fillColor=#66B2FF;strokeColor=none;dashed=0;verticalLabelPosition=bottom;verticalAlign=top;align=center;html=1;fontSize=12;fontStyle=0;aspect=fixed;pointerEvents=1;shape=mxgraph.aws4.container_registry_image;" vertex="1" parent="1">
          <mxGeometry x="57.5" y="740" width="20" height="20" as="geometry"/>
        </mxCell>
        <mxCell id="wuBHW3_i2wkjCvPNT6zz-217" value="&lt;font style=&quot;font-size: 5px&quot;&gt;dashboard&lt;/font&gt;" style="text;html=1;align=center;verticalAlign=middle;resizable=0;points=[];autosize=1;" vertex="1" parent="1">
          <mxGeometry x="131.81" y="750" width="40" height="20" as="geometry"/>
        </mxCell>
        <mxCell id="wuBHW3_i2wkjCvPNT6zz-218" value="&lt;font style=&quot;font-size: 5px&quot;&gt;Image&lt;/font&gt;" style="text;html=1;align=center;verticalAlign=middle;resizable=0;points=[];autosize=1;" vertex="1" parent="1">
          <mxGeometry x="52.5" y="750" width="30" height="20" as="geometry"/>
        </mxCell>
        <mxCell id="wuBHW3_i2wkjCvPNT6zz-123" value="" style="shape=flexArrow;endArrow=classic;html=1;width=13;endSize=6.03;exitX=0.02;exitY=0.915;exitDx=0;exitDy=0;exitPerimeter=0;fillColor=#66B2FF;strokeColor=#000000;entryX=0;entryY=0.574;entryDx=0;entryDy=0;entryPerimeter=0;" edge="1" parent="1" target="wuBHW3_i2wkjCvPNT6zz-107">
          <mxGeometry width="50" height="50" relative="1" as="geometry">
            <mxPoint x="159.5" y="752" as="sourcePoint"/>
            <mxPoint x="310.06" y="674" as="targetPoint"/>
          </mxGeometry>
        </mxCell>
        <mxCell id="wuBHW3_i2wkjCvPNT6zz-219" value="Dashboard shows history of&amp;nbsp;&lt;br&gt;pictures selected&lt;br&gt;in calendar." style="text;html=1;align=center;verticalAlign=middle;resizable=0;points=[];autosize=1;fontColor=#000000;" vertex="1" parent="1">
          <mxGeometry x="505" y="515" width="170" height="50" as="geometry"/>
        </mxCell>
      </root>
    </mxGraphModel>
  </diagram>
</mxfile>
